<svg xmlns:inkscape="http://www.inkscape.org/namespaces/inkscape" xmlns:sodipodi="http://sodipodi.sourceforge.net/DTD/sodipodi-0.dtd" xmlns="http://www.w3.org/2000/svg" xmlns:svg="http://www.w3.org/2000/svg" version="1.1" id="Layer_1" x="0px" y="0px" viewBox="0 0 776.46998 97.58" xml:space="preserve" sodipodi:docname="Logo of Realpage.svg" width="776.46997" height="97.580002" inkscape:version="1.2.2 (b0a8486541, 2022-12-01)"><defs id="defs3463">
	
	
	
	
</defs><sodipodi:namedview id="namedview3461" pagecolor="#ffffff" bordercolor="#000000" borderopacity="0.25" inkscape:showpageshadow="2" inkscape:pageopacity="0.0" inkscape:pagecheckerboard="0" inkscape:deskcolor="#d1d1d1" showgrid="false" inkscape:zoom="0.56653265" inkscape:cx="427.15985" inkscape:cy="236.52653" inkscape:window-width="1866" inkscape:window-height="1011" inkscape:window-x="0" inkscape:window-y="0" inkscape:window-maximized="1" inkscape:current-layer="Layer_1"/>
<style type="text/css" id="style3426">
	.st0{fill:#EE7755;}
	.st1{fill:#232526;}
</style>
<g id="g3434">
		<path class="st0" d="m 71.03,16.03 c 0,8.85 -7.15,16.03 -15.97,16.03 C 46.24,32.06 39.1,24.88 39.1,16.03 39.1,7.18 46.25,0 55.07,0 63.88,0 71.03,7.18 71.03,16.03" id="path3428"/>
		<path class="st0" d="m 31.93,81.55 c 0,8.85 -7.15,16.03 -15.97,16.03 C 7.14,97.58 0,90.4 0,81.55 0,72.7 7.15,65.52 15.97,65.52 c 8.82,0 15.96,7.17 15.96,16.03" id="path3430"/>
		<path class="st0" d="m 110.13,81.55 c 0,8.85 -7.15,16.03 -15.97,16.03 -8.81,0 -15.96,-7.18 -15.96,-16.03 0,-8.85 7.15,-16.03 15.96,-16.03 8.83,0 15.97,7.17 15.97,16.03" id="path3432"/>
	</g><path class="st1" d="m 628.01,59.4 c 0,-22.22 17.18,-37.81 38.51,-37.81 12.24,0 23.3,5.22 29.62,12.24 l -8.98,9.48 c -5.23,-5.33 -12.54,-8.69 -20.64,-8.69 -14.12,0 -24.69,10.47 -24.69,24.68 0,13.93 10.27,24.69 24.48,24.69 8,0 15.7,-3.56 20.44,-8.39 V 64.54 H 665.62 V 52.69 h 33.57 v 29.52 c -8.98,9.48 -20.54,14.71 -33.27,14.71 -22.01,0.01 -37.91,-15.89 -37.91,-37.52 z" id="path3436"/><g id="g3452">
		<path class="st1" d="m 167.2,68.39 h -8.98 V 95.74 H 144.79 V 22.78 h 27.16 c 16.68,0 24.48,10.96 24.48,22.8 0,8.89 -4.64,17.77 -15.3,21.24 l 18.37,28.93 h -16 z m -8.99,-12.15 h 12.25 c 8.78,0 12.14,-5.22 12.14,-10.56 0,-5.53 -3.65,-10.36 -10.66,-10.36 h -13.73 z" id="path3438"/>
		<path class="st1" d="m 230.5,22.78 h 48.48 V 35.42 H 244.03 V 52.6 h 32.29 v 12.54 h -32.29 v 17.97 h 34.95 V 95.75 H 230.5 Z" id="path3440"/>
		<path class="st1" d="m 350.86,79.15 h -25.87 l -6.02,16.59 h -14.32 l 28.24,-72.97 h 10.37 L 371.2,95.74 H 356.88 Z M 328.95,67.01 h 18.07 l -8.98,-24.98 z" id="path3442"/>
		<path class="st1" d="m 399.43,22.78 h 13.53 v 60.03 h 37.52 v 12.93 h -51.05 z" id="path3444"/>
		<path class="st1" d="m 530.69,46.57 c 0,12.15 -7.7,23.41 -26.27,23.41 H 492.57 V 95.75 H 479.14 V 22.78 h 26.36 c 17.88,0 25.19,11.85 25.19,23.79 z m -13.73,-0.2 c 0,-5.82 -3.85,-11.05 -11.16,-11.05 h -13.24 v 22.31 h 12.25 c 8.5,0 12.15,-5.73 12.15,-11.26 z" id="path3446"/>
		<path class="st1" d="m 591.32,79.15 h -25.87 l -6.02,16.59 h -14.32 l 28.24,-72.97 h 10.37 l 27.94,72.97 H 597.34 Z M 569.4,67.01 h 18.07 l -8.98,-24.98 z" id="path3448"/>
		<path class="st1" d="m 727.99,22.78 h 48.48 V 35.42 H 741.52 V 52.6 h 32.29 v 12.54 h -32.29 v 17.97 h 34.95 v 12.64 h -48.48 z" id="path3450"/>
	</g>
</svg>