<svg id="Layer_1" data-name="Layer 1" xmlns="http://www.w3.org/2000/svg" viewBox="0 0 515.97 360"><defs><style>.cls-1{fill:#03363d;}</style></defs><title>medium</title><polygon class="cls-1" points="250.22 93.22 250.22 206.08 156.74 206.08 250.22 93.22"/><path class="cls-1" d="M250.22,52.71a46.74,46.74,0,0,1-93.48,0Z"/><path class="cls-1" d="M265.62,206.08a46.75,46.75,0,1,1,93.49,0Z"/><polygon class="cls-1" points="265.62 165.57 265.62 52.71 359.11 52.71 265.62 165.57"/><path class="cls-1" d="M317.91,302.63a18.25,18.25,0,0,0,12.95-5l6.42,6.93c-4.25,4.35-10.12,7.59-19.26,7.59-15.68,0-25.79-10.39-25.79-24.46a24,24,0,0,1,24.37-24.47c15.56,0,24.37,11.84,23.61,28.27H303.43c1.31,6.81,6.1,11.17,14.48,11.17m11.2-19c-1-6.37-4.78-11.06-12.4-11.06-7.08,0-12,4-13.28,11.06Z"/><polygon class="cls-1" points="76.4 302.12 104.71 273.36 77.07 273.36 77.07 264.34 117.83 264.34 117.83 273.55 89.52 302.3 118.21 302.3 118.21 311.33 76.4 311.33 76.4 302.12"/><path class="cls-1" d="M150,302.63a18.22,18.22,0,0,0,12.95-5l6.42,6.93c-4.24,4.35-10.12,7.59-19.26,7.59-15.67,0-25.79-10.39-25.79-24.46a24,24,0,0,1,24.37-24.47c15.57,0,24.38,11.84,23.62,28.27H135.52c1.31,6.81,6.09,11.17,14.47,11.17m11.21-19c-1-6.37-4.79-11.06-12.4-11.06-7.08,0-12,4-13.28,11.06Z"/><path class="cls-1" d="M233.42,287.69c0-15,11.23-24.44,23.59-24.44a20.37,20.37,0,0,1,15.67,7.05V242.58h10v68.6h-10V304.7a20.12,20.12,0,0,1-15.76,7.42c-12,0-23.5-9.49-23.5-24.43m39.82-.1a14.92,14.92,0,1,0-14.91,15.32c8.59,0,14.91-6.86,14.91-15.32"/><path class="cls-1" d="M346.72,301.22l9.06-4.7a13.46,13.46,0,0,0,12.08,6.86c5.67,0,8.59-2.91,8.59-6.2,0-3.76-5.47-4.61-11.42-5.83-8-1.69-16.32-4.32-16.32-14,0-7.43,7.07-14.29,18.21-14.19,8.78,0,15.29,3.47,19,9.11l-8.4,4.61a12.2,12.2,0,0,0-10.57-5.36c-5.38,0-8.11,2.63-8.11,5.64,0,3.39,4.34,4.32,11.13,5.83,7.74,1.69,16.51,4.23,16.51,14,0,6.49-5.66,15.23-19.06,15.13-9.81,0-16.7-3.94-20.67-10.9"/><polygon class="cls-1" points="413.62 290.32 405.69 298.97 405.69 311.18 395.69 311.18 395.69 242.57 405.69 242.57 405.69 287.5 426.92 264.19 439.1 264.19 420.69 284.3 439.57 311.18 428.25 311.18 413.62 290.32"/><path class="cls-1" d="M203.19,263.24c-11.89,0-21.84,7.71-21.84,20.49v27.45h10.19V285c0-7.7,4.43-12.32,12-12.32s11.33,4.62,11.33,12.32v26.18H225V283.73c0-12.78-10-20.49-21.85-20.49"/></svg>